<?xml version="1.0" encoding="UTF-8" standalone="no"?>
<!-- Created with Inkscape (http://www.inkscape.org/) -->

<svg
   width="297mm"
   height="210mm"
   viewBox="0 0 297 210"
   version="1.1"
   id="svg5"
   inkscape:version="1.1.1 (c3084ef, 2021-09-22)"
   sodipodi:docname="backgroung-2-2.svg"
   xmlns:inkscape="http://www.inkscape.org/namespaces/inkscape"
   xmlns:sodipodi="http://sodipodi.sourceforge.net/DTD/sodipodi-0.dtd"
   xmlns="http://www.w3.org/2000/svg"
   xmlns:svg="http://www.w3.org/2000/svg">
  <sodipodi:namedview
     id="namedview7"
     pagecolor="#ffffff"
     bordercolor="#666666"
     borderopacity="1.0"
     inkscape:pageshadow="2"
     inkscape:pageopacity="0.0"
     inkscape:pagecheckerboard="0"
     inkscape:document-units="mm"
     showgrid="false"
     units="mm"
     inkscape:snap-tangential="false"
     inkscape:snap-perpendicular="false"
     inkscape:zoom="1.5143473"
     inkscape:cx="209.00093"
     inkscape:cy="345.69349"
     inkscape:window-width="1280"
     inkscape:window-height="653"
     inkscape:window-x="0"
     inkscape:window-y="25"
     inkscape:window-maximized="0"
     inkscape:current-layer="layer1" />
  <defs
     id="defs2">
    <inkscape:path-effect
       effect="spiro"
       id="path-effect1936"
       is_visible="true"
       lpeversion="1" />
    <inkscape:path-effect
       effect="spiro"
       id="path-effect1432"
       is_visible="true"
       lpeversion="1" />
    <inkscape:path-effect
       effect="spiro"
       id="path-effect1143"
       is_visible="true"
       lpeversion="1" />
    <inkscape:path-effect
       effect="spiro"
       id="path-effect11002"
       is_visible="true"
       lpeversion="1" />
    <inkscape:path-effect
       effect="spiro"
       id="path-effect10945"
       is_visible="true"
       lpeversion="1" />
    <clipPath
       clipPathUnits="userSpaceOnUse"
       id="clipPath1054">
      <rect
         style="fill:#ff0000;stroke:#b2b2b2;stroke-width:0.264583"
         id="rect1056"
         width="590.9267"
         height="181.5265"
         x="-117.79912"
         y="-158.35289" />
    </clipPath>
    <linearGradient
       id="linearGradient3168">
      <stop
         id="stop3170"
         style="stop-color:#f7ec9a"
         offset="0" />
      <stop
         id="stop3176"
         style="stop-color:#f6ea8d"
         offset=".13401" />
      <stop
         id="stop3180"
         style="stop-color:#f5e98a"
         offset=".45674" />
      <stop
         id="stop3178"
         style="stop-color:#f8ed9d"
         offset=".80934" />
      <stop
         id="stop3172"
         style="stop-color:#f5e98a"
         offset="1" />
    </linearGradient>
    <linearGradient
       id="linearGradient1464"
       inkscape:swatch="solid">
      <stop
         style="stop-color:#000000;stop-opacity:1;"
         offset="0"
         id="stop1462" />
    </linearGradient>
  </defs>
  <g
     inkscape:label="Calque 1"
     inkscape:groupmode="layer"
     id="layer1"
     style="display:inline">
    <ellipse
       style="fill:#f5ec7d;fill-rule:evenodd;stroke-width:0.376063;fill-opacity:1"
       id="path47"
       cx="148.76859"
       cy="2.317874"
       rx="156.76416"
       ry="120.15375"
       clip-path="url(#clipPath1054)"
       transform="matrix(-1.0611611,0,0,-0.95387396,321.75099,18.389085)" />
    <g
       id="g3867"
       transform="matrix(0.06254615,0,0,0.07408631,36.281203,85.311047)">
      <path
         d="m 269.03284,759.032 -0.0379,0.24566 c -0.0449,-0.23913 -0.0882,-0.4842 -0.12926,-0.72552 -0.0751,-0.39 -0.14026,-0.7804 -0.20168,-1.17321 a 95.55112,95.55112 0 0 1 3.9079,-45.76336 q 1.4428,-4.30709 3.28655,-8.45606 a 93.74713,93.74713 0 0 1 19.64776,-28.70874 40.444,40.444 0 0 1 9.11275,-6.99233 c 0.49254,-0.26095 0.98777,-0.50827 1.494,-0.73628 a 16.67145,16.67145 0 0 1 9.998,-1.44878 13.63552,13.63552 0 0 1 3.55957,1.195 c 0.39479,0.192 0.77486,0.40275 1.14774,0.6276 a 19.75625,19.75625 0 0 1 8.64631,13.22952 30.86278,30.86278 0 0 1 -0.43488,12.03106 q -0.12025,0.56508 -0.25842,1.12548 a 62.70539,62.70539 0 0 1 -2.48907,7.73053 c -9.96873,25.64957 -31.39183,48.40643 -57.24938,57.81943 z"
         transform="translate(-194.12008,-140)"
         fill="#f2f2f2"
         id="path3717" />
      <path
         d="m 319.60412,666.55063 q -11.66777,16.76675 -22.04379,34.3838 -10.36341,17.60241 -19.37144,35.9573 -5.03919,10.26928 -9.63774,20.74671 c -0.33941,0.773 0.80562,1.44544 1.14941,0.66249 q 8.21254,-18.70334 17.82456,-36.7486 9.6061,-18.02687 20.56148,-35.2903 6.12971,-9.65806 12.66693,-19.04891 c 0.48734,-0.7003 -0.66386,-1.36023 -1.14941,-0.66249 z"
         transform="translate(-194.12008,-140)"
         fill="#ffffff"
         id="path3719" />
      <path
         d="m 327.92735,692.42374 a 36.42583,36.42583 0 0 1 -23.9464,13.87842 34.62039,34.62039 0 0 1 -7.99383,0.15838 c -0.8516,-0.0805 -0.85755,1.24678 -0.0133,1.32661 a 37.74921,37.74921 0 0 0 27.36864,-8.64847 35.94791,35.94791 0 0 0 5.73426,-6.05245 c 0.51143,-0.68053 -0.64145,-1.33842 -1.14941,-0.66249 z"
         transform="translate(-194.12008,-140)"
         fill="#ffffff"
         id="path3721" />
      <path
         d="m 278.00347,733.63185 a 30.495,30.495 0 0 1 -3.36463,-6.22033 32.17041,32.17041 0 0 1 -2.06693,-15.79595 q 1.4428,-4.30709 3.28655,-8.45606 a 0.75827,0.75827 0 0 1 0.0613,0.74918 29.11531,29.11531 0 0 0 -1.85428,6.46168 30.74813,30.74813 0 0 0 5.08981,22.60357 0.53935,0.53935 0 0 1 0.0881,0.51977 0.72267,0.72267 0 0 1 -1.23993,0.13814 z"
         transform="translate(-194.12008,-140)"
         fill="#ffffff"
         id="path3723" />
      <path
         d="m 304.81723,666.61825 a 30.873,30.873 0 0 0 1.36,19.17961 0.66706,0.66706 0 0 0 0.90485,0.24695 0.67955,0.67955 0 0 0 0.24695,-0.90486 29.38117,29.38117 0 0 1 -1.23217,-18.17246 0.66361,0.66361 0 0 0 -1.27965,-0.34924 z"
         transform="translate(-194.12008,-140)"
         fill="#ffffff"
         id="path3725" />
      <path
         d="m 268.86976,726.99737 0.0806,0.23515 c -0.15087,-0.19089 -0.303,-0.38783 -0.45149,-0.58245 -0.24765,-0.31046 -0.48672,-0.62594 -0.72358,-0.94526 A 95.55132,95.55132 0 0 1 249.9779,683.36322 q -0.723,-4.4844 -1.01758,-9.015 a 93.74705,93.74705 0 0 1 4.06347,-34.55018 40.4442,40.4442 0 0 1 4.82181,-10.42521 c 0.315,-0.45989 0.63863,-0.909 0.981,-1.346 a 16.67146,16.67146 0 0 1 8.18086,-5.92728 13.63548,13.63548 0 0 1 3.70734,-0.59523 c 0.43877,-0.0134 0.87327,-0.003 1.30792,0.0226 a 19.75622,19.75622 0 0 1 13.80225,7.69916 30.8628,30.8628 0 0 1 5.20357,10.85625 q 0.156,0.55628 0.294,1.11673 a 62.70413,62.70413 0 0 1 1.38678,8.00208 c 3.08681,27.34491 -5.31359,57.44904 -23.83952,77.7962 z"
         transform="translate(-194.12008,-140)"
         fill="#f2f2f2"
         id="path3727" />
      <path
         d="m 270.69414,621.608 q -2.544,20.26793 -3.54911,40.6888 -1.00074,20.40206 -0.45166,40.84086 0.3078,11.43489 1.10248,22.84944 c 0.0585,0.84217 1.38487,0.90579 1.32562,0.0527 q -1.4154,-20.37786 -1.28578,-40.823 0.13295,-20.42616 1.81535,-40.803 0.94185,-11.4002 2.36872,-22.75305 c 0.10626,-0.84654 -1.21975,-0.89619 -1.32562,-0.0528 z"
         transform="translate(-194.12008,-140)"
         fill="#ffffff"
         id="path3729" />
      <path
         d="m 290.08349,640.65387 a 36.42578,36.42578 0 0 1 -14.75918,23.41381 34.6199,34.6199 0 0 1 -7.00546,3.85357 c -0.79154,0.32429 -0.18026,1.50245 0.6045,1.181 a 37.74923,37.74923 0 0 0 20.21922,-20.37208 35.948,35.948 0 0 0 2.26654,-8.02351 c 0.13678,-0.84022 -1.18977,-0.88729 -1.32562,-0.0527 z"
         transform="translate(-194.12008,-140)"
         fill="#ffffff"
         id="path3731" />
      <path
         d="m 265.01488,700.33692 a 30.49551,30.49551 0 0 1 -5.86906,-3.94554 32.17063,32.17063 0 0 1 -9.168,-13.02816 q -0.723,-4.4844 -1.01758,-9.015 a 0.75824,0.75824 0 0 1 0.40228,0.635 29.11512,29.11512 0 0 0 1.35951,6.58357 30.7482,30.7482 0 0 0 15.00719,17.65254 0.5393,0.5393 0 0 1 0.31949,0.41935 0.72267,0.72267 0 0 1 -1.03383,0.69824 z"
         transform="translate(-194.12008,-140)"
         fill="#ffffff"
         id="path3733" />
      <path
         d="m 257.63085,628.53667 a 30.873,30.873 0 0 0 10.11372,16.353 0.66707,0.66707 0 0 0 0.916,-0.20163 0.67954,0.67954 0 0 0 -0.20164,-0.916 29.38112,29.38112 0 0 1 -9.53266,-15.52047 0.66361,0.66361 0 0 0 -1.29544,0.28516 z"
         transform="translate(-194.12008,-140)"
         fill="#ffffff"
         id="path3735" />
      <path
         d="m 269.44389,759.19523 0.19452,0.15475 c -0.22993,-0.0796 -0.46417,-0.1636 -0.6941,-0.24761 -0.37587,-0.12821 -0.74721,-0.26528 -1.11876,-0.40677 a 95.55124,95.55124 0 0 1 -37.79944,-26.09137 q -3.02434,-3.38909 -5.71256,-7.0479 a 93.7471,93.7471 0 0 1 -15.18363,-31.29991 40.44371,40.44371 0 0 1 -1.55185,-11.381 c 0.0177,-0.55711 0.0486,-1.1098 0.10168,-1.66249 a 16.67157,16.67157 0 0 1 3.70086,-9.40015 13.636,13.636 0 0 1 2.80318,-2.49817 c 0.36248,-0.2476 0.734,-0.47307 1.11423,-0.68533 a 19.75621,19.75621 0 0 1 15.776,-0.94618 30.86284,30.86284 0 0 1 10.23128,6.3449 q 0.431,0.38468 0.84911,0.78261 a 62.70373,62.70373 0 0 1 5.47811,5.99558 c 17.32789,21.37801 26.46281,51.26745 21.81137,78.38904 z"
         transform="translate(-194.12008,-140)"
         fill="#f2f2f2"
         id="path3737" />
      <path
         d="m 214.22223,669.41313 q 8.772,18.44757 18.92306,36.1952 10.14459,17.72943 21.61482,34.65515 6.41775,9.4691 13.2348,18.65884 c 0.50285,0.6781 1.6547,0.0174 1.14536,-0.66949 Q 256.9729,741.845 246.0711,724.54841 235.18233,707.26604 225.62569,689.19074 220.27956,679.07786 215.36758,668.74365 c -0.36638,-0.77051 -1.5104,-0.0982 -1.14535,0.66948 z"
         transform="translate(-194.12008,-140)"
         fill="#ffffff"
         id="path3739" />
      <path
         d="m 240.81684,675.01854 a 36.4258,36.4258 0 0 1 0.17395,27.67689 34.61982,34.61982 0 0 1 -3.82731,7.01984 c -0.49229,0.69954 0.65729,1.363 1.14536,0.66949 a 37.74921,37.74921 0 0 0 6.06476,-28.05454 35.948,35.948 0 0 0 -2.41141,-7.98116 c -0.33727,-0.78162 -1.48034,-0.10685 -1.14535,0.66948 z"
         transform="translate(-194.12008,-140)"
         fill="#ffffff"
         id="path3741" />
      <path
         d="m 251.83749,738.80763 a 30.495,30.495 0 0 1 -7.07011,-0.1636 32.17048,32.17048 0 0 1 -14.74127,-6.0398 q -3.02434,-3.38909 -5.71256,-7.0479 a 0.75827,0.75827 0 0 1 0.68093,0.31836 29.11553,29.11553 0 0 0 4.69117,4.815 30.74817,30.74817 0 0 0 22.15184,6.79144 0.53938,0.53938 0 0 1 0.495,0.18127 0.72268,0.72268 0 0 1 -0.495,1.14523 z"
         transform="translate(-194.12008,-140)"
         fill="#ffffff"
         id="path3743" />
      <path
         d="m 206.94684,682.28657 a 30.873,30.873 0 0 0 17.32878,8.33189 c 0.3581,0.0477 0.65985,-0.339 0.66323,-0.66323 a 0.67954,0.67954 0 0 0 -0.66323,-0.66323 29.38112,29.38112 0 0 1 -16.39083,-7.94337 c -0.61481,-0.59262 -1.554,0.34414 -0.938,0.93794 z"
         transform="translate(-194.12008,-140)"
         fill="#ffffff"
         id="path3745" />
      <path
         d="m 359.98141,584.24891 a 10.74268,10.74268 0 0 0 1.58187,-16.3965 l 4.16719,-93.01794 -21.21552,2.3813 1.23255,90.98468 a 10.80091,10.80091 0 0 0 14.23391,16.04846 z"
         transform="translate(-194.12008,-140)"
         fill="#ffb8b8"
         id="path3747" />
      <polygon
         points="212.752,555.134 204.564,601.708 216.639,603.83 228.573,558.267 "
         fill="#ffb8b8"
         id="polygon3749" />
      <path
         d="m 395.12335,741.026 h 38.53073 v 14.88687 H 410.0102 a 14.88686,14.88686 0 0 1 -14.88686,-14.88686 v 0 z"
         transform="rotate(-170.02922,311.22242,686.9362)"
         fill="#2f2e41"
         id="path3751" />
      <polygon
         points="171.42,560.464 171.422,607.752 183.682,607.751 189.514,560.463 "
         fill="#ffb8b8"
         id="polygon3753" />
      <path
         d="m 362.91494,744.24846 h 38.53073 v 14.88687 h -23.64388 a 14.88686,14.88686 0 0 1 -14.88686,-14.88686 v 0 z"
         transform="rotate(179.99738,285.12183,681.68969)"
         fill="#2f2e41"
         id="path3755" />
      <path
         d="m 417.69451,734.8025 a 4.75008,4.75008 0 0 1 -0.57252,-0.0339 l -14.43,-1.18741 a 4.88077,4.88077 0 0 1 -4.24251,-5.65951 l 13.32468,-74.681 -9.00352,-47.474 a 1.62706,1.62706 0 0 0 -3.219,0.15995 l -11.25575,126.62771 a 4.92369,4.92369 0 0 1 -5.2096,4.43715 l -13.59479,-0.50632 a 4.88783,4.88783 0 0 1 -4.53645,-4.631 l -0.91385,-151.76761 70.48116,-8.80968 4.9236,76.04057 -0.0196,0.0805 -16.99071,83.675 a 4.88582,4.88582 0 0 1 -4.74115,3.72954 z"
         transform="translate(-194.12008,-140)"
         fill="#2f2e41"
         id="path3757" />
      <circle
         cx="193.15865"
         cy="249.99669"
         r="24.561029"
         fill="#ffb8b8"
         id="circle3759" />
      <path
         d="m 410.42125,591.17892 a 20.11,20.11 0 0 1 -10.85692,-3.10569 c -11.89736,-7.43585 -25.41059,-4.48057 -32.40686,-2.057 a 4.88009,4.88009 0 0 1 -4.22053,-0.48089 4.81083,4.81083 0 0 1 -2.2244,-3.55163 L 347.99,468.35816 c -2.132,-19.03768 9.33586,-36.93668 27.2677,-42.55965 v 0 q 1.01052,-0.317 2.05519,-0.60112 a 39.56866,39.56866 0 0 1 32.972,5.72254 40.20349,40.20349 0 0 1 17.1668,29.35307 l 10.71048,114.3871 a 4.80738,4.80738 0 0 1 -1.52715,4.0071 c -3.75448,3.47324 -14.65166,12.51066 -26.21377,12.51172 z"
         transform="translate(-194.12008,-140)"
         fill="#2219c4"
         id="path3761"
         style="fill:#ffae1a;fill-opacity:1" />
      <path
         d="m 371.68013,492.72437 -28.70337,-3.156 a 5.71747,5.71747 0 0 1 -4.90543,-7.13382 l 7.30606,-27.84637 a 15.87852,15.87852 0 0 1 31.55638,3.56326 l 1.08461,28.67531 a 5.71749,5.71749 0 0 1 -6.33825,5.89758 z"
         transform="translate(-194.12008,-140)"
         fill="#2219c4"
         id="path3763"
         style="fill:#ffae1a;fill-opacity:1" />
      <path
         d="m 438.04732,580.26582 a 10.74264,10.74264 0 0 0 -0.40564,-16.46763 l -7.07293,-92.84219 -20.78851,4.67965 12.20288,90.41406 a 10.80091,10.80091 0 0 0 16.0642,14.21613 z"
         transform="translate(-194.12008,-140)"
         fill="#ffb8b8"
         id="path3765" />
      <path
         d="m 401.81017,486.888 a 5.7113,5.7113 0 0 1 -1.81845,-4.39983 l 1.08461,-28.67532 a 15.87852,15.87852 0 0 1 31.55638,-3.56326 l 7.30606,27.84637 a 5.71749,5.71749 0 0 1 -4.90543,7.13383 l -28.70337,3.156 a 5.711,5.711 0 0 1 -4.5198,-1.49779 z"
         transform="translate(-194.12008,-140)"
         fill="#2219c4"
         id="path3767"
         style="fill:#ffae1a;fill-opacity:1" />
      <path
         d="m 385.81792,415.48307 a 5.683,5.683 0 0 1 -1.29663,-0.15137 l -0.12475,-0.0303 c -21.59449,-3.30371 -26.3667,-15.81153 -27.41431,-21.03516 -1.08423,-5.4082 0.15039,-10.62842 2.94019,-12.65576 -1.521,-4.80273 -1.27686,-9.061 0.72729,-12.66211 3.49536,-6.28027 11.08106,-8.40381 12.09839,-8.66357 6.05811,-4.46924 13.3064,-1.48584 14.62524,-0.88086 11.71851,-4.33545 16.19751,-0.72657 17.00757,0.0791 5.23828,0.94092 8.43115,2.96435 9.49121,6.01562 1.991,5.731 -4.30542,12.85987 -4.57446,13.16065 l -0.13965,0.15576 -9.38013,0.44678 a 6.358,6.358 0 0 0 -5.9812,7.31689 v 0 a 29.60406,29.60406 0 0 0 0.96045,3.35547 c 1.602,5.00635 2.80225,9.2832 1.25415,10.90918 a 2.50968,2.50968 0 0 1 -2.62524,0.45508 c -1.46655,-0.3916 -2.4624,-0.30957 -2.9585,0.24463 -0.77026,0.85937 -0.53515,3.03466 0.66211,6.12549 a 5.73887,5.73887 0 0 1 -1.0459,5.84716 5.56805,5.56805 0 0 1 -4.22583,1.96729 z"
         transform="translate(-194.12008,-140)"
         fill="#2f2e41"
         id="path3769" />
      <path
         d="m 675.87992,494 h -121 a 17.01917,17.01917 0 0 1 -17,-17 V 295.16846 a 17.01916,17.01916 0 0 1 17,-17 h 121 a 17.01916,17.01916 0 0 1 17,17 V 477 a 17.01917,17.01917 0 0 1 -17,17 z m -121,-213.83154 a 15.017,15.017 0 0 0 -15,15 V 477 a 15.017,15.017 0 0 0 15,15 h 121 a 15.017,15.017 0 0 0 15,-15 V 295.16846 a 15.017,15.017 0 0 0 -15,-15 z"
         transform="translate(-194.12008,-140)"
         fill="#3f3d56"
         id="path3771" />
      <path
         d="m 657.37988,365.58447 h -84 a 8.50951,8.50951 0 0 1 -8.5,-8.5 v -40 a 8.50951,8.50951 0 0 1 8.5,-8.5 h 84 a 8.50981,8.50981 0 0 1 8.5,8.5 v 40 a 8.50981,8.50981 0 0 1 -8.5,8.5 z"
         transform="translate(-194.12008,-140)"
         fill="#2219c4"
         id="path3773"
         style="fill:#e6e6e6;fill-opacity:1" />
      <path
         d="m 651.38,403.08434 h -72 a 8,8 0 1 1 0,-16 h 72 a 8,8 0 0 1 0,16 z"
         transform="translate(-194.12008,-140)"
         fill="#cccccc"
         id="path3775" />
      <path
         d="m 651.38,433.08434 h -72 a 8,8 0 1 1 0,-16 h 72 a 8,8 0 0 1 0,16 z"
         transform="translate(-194.12008,-140)"
         fill="#cccccc"
         id="path3777" />
      <path
         d="m 651.38,463.08434 h -72 a 8,8 0 1 1 0,-16 h 72 a 8,8 0 0 1 0,16 z"
         transform="translate(-194.12008,-140)"
         fill="#cccccc"
         id="path3779" />
      <path
         d="m 970.87992,596 h -121 a 17.01917,17.01917 0 0 1 -17,-17 V 397.16846 a 17.01916,17.01916 0 0 1 17,-17 h 121 a 17.01916,17.01916 0 0 1 17,17 V 579 a 17.01917,17.01917 0 0 1 -17,17 z m -121,-213.83154 a 15.017,15.017 0 0 0 -15,15 V 579 a 15.017,15.017 0 0 0 15,15 h 121 a 15.017,15.017 0 0 0 15,-15 V 397.16846 a 15.017,15.017 0 0 0 -15,-15 z"
         transform="translate(-194.12008,-140)"
         fill="#3f3d56"
         id="path3781" />
      <path
         d="m 946.38,425.08434 h -72 a 8,8 0 1 1 0,-16 h 72 a 8,8 0 0 1 0,16 z"
         transform="translate(-194.12008,-140)"
         fill="#cccccc"
         id="path3783" />
      <path
         d="m 946.38,455.08434 h -72 a 8,8 0 1 1 0,-16 h 72 a 8,8 0 0 1 0,16 z"
         transform="translate(-194.12008,-140)"
         fill="#cccccc"
         id="path3785" />
      <path
         d="m 952.37988,531.584 h -84 a 8.51013,8.51013 0 0 1 -8.5,-8.5 v -40 a 8.51014,8.51014 0 0 1 8.5,-8.5 h 84 a 8.51013,8.51013 0 0 1 8.5,8.5 v 40 a 8.51012,8.51012 0 0 1 -8.5,8.5 z"
         transform="translate(-194.12008,-140)"
         fill="#e6e6e6"
         id="path3787" />
      <path
         d="m 946.38,567.08434 h -72 a 8,8 0 1 1 0,-16 h 72 a 8,8 0 0 1 0,16 z"
         transform="translate(-194.12008,-140)"
         fill="#cccccc"
         id="path3789" />
      <path
         d="m 896.87992,307 h -121 a 17.01917,17.01917 0 0 1 -17,-17 V 177.16846 a 17.01916,17.01916 0 0 1 17,-17 h 121 a 17.01916,17.01916 0 0 1 17,17 V 290 a 17.01917,17.01917 0 0 1 -17,17 z m -121,-144.83154 a 15.017,15.017 0 0 0 -15,15 V 290 a 15.017,15.017 0 0 0 15,15 h 121 a 15.017,15.017 0 0 0 15,-15 V 177.16846 a 15.017,15.017 0 0 0 -15,-15 z"
         transform="translate(-194.12008,-140)"
         fill="#3f3d56"
         id="path3791" />
      <path
         d="m 872.38,271.58434 h -72 a 8,8 0 1 1 0,-16 h 72 a 8,8 0 0 1 0,16 z"
         transform="translate(-194.12008,-140)"
         fill="#cccccc"
         id="path3793" />
      <path
         d="m 872.38,241.58434 h -72 a 8,8 0 1 1 0,-16 h 72 a 8,8 0 0 1 0,16 z"
         transform="translate(-194.12008,-140)"
         fill="#cccccc"
         id="path3795" />
      <path
         d="m 872.38,211.58434 h -72 a 8,8 0 1 1 0,-16 h 72 a 8,8 0 0 1 0,16 z"
         transform="translate(-194.12008,-140)"
         fill="#cccccc"
         id="path3797" />
      <circle
         cx="488.75983"
         cy="143"
         r="23"
         fill="#2219c4"
         id="circle3799"
         style="fill:#ffae1a;fill-opacity:1" />
      <path
         d="m 680.60009,291.774 a 2.38531,2.38531 0 0 1 -1.43527,-0.47675 l -0.0257,-0.0193 -5.40515,-4.13837 a 2.40139,2.40139 0 1 1 2.921,-3.81237 l 3.50105,2.68456 8.27354,-10.7899 a 2.40128,2.40128 0 0 1 3.36684,-0.44444 l -0.0514,0.0698 0.0528,-0.0688 a 2.4041,2.4041 0 0 1 0.44444,3.36687 l -9.73161,12.69147 a 2.40237,2.40237 0 0 1 -1.91051,0.9372 z"
         transform="translate(-194.12008,-140)"
         fill="#ffffff"
         id="path3801" />
      <circle
         cx="788.75983"
         cy="246"
         r="23"
         fill="#3f3d56"
         id="circle3803"
         style="fill:#ffae1a;fill-opacity:1" />
      <path
         d="m 980.60009,394.774 a 2.38531,2.38531 0 0 1 -1.43527,-0.47675 l -0.0257,-0.0193 -5.40515,-4.13837 a 2.40139,2.40139 0 1 1 2.921,-3.81237 l 3.50105,2.68456 8.27354,-10.7899 a 2.40128,2.40128 0 0 1 3.36684,-0.44444 l -0.0514,0.0698 0.0528,-0.0688 a 2.4041,2.4041 0 0 1 0.44444,3.36687 l -9.73161,12.69147 a 2.40237,2.40237 0 0 1 -1.91051,0.9372 z"
         transform="translate(-194.12008,-140)"
         fill="#ffffff"
         id="path3805" />
      <circle
         cx="715.75983"
         cy="23"
         r="23"
         fill="#3f3d56"
         id="circle3807"
         style="fill:#ffae1a;fill-opacity:1" />
      <path
         d="m 907.60009,171.774 a 2.38531,2.38531 0 0 1 -1.43527,-0.47675 l -0.0257,-0.0193 -5.40515,-4.13837 a 2.40139,2.40139 0 1 1 2.921,-3.81237 l 3.50105,2.68456 8.27354,-10.7899 a 2.40128,2.40128 0 0 1 3.36684,-0.44444 l -0.0514,0.0698 0.0528,-0.0688 a 2.4041,2.4041 0 0 1 0.44444,3.36687 l -9.73161,12.69147 a 2.40237,2.40237 0 0 1 -1.91051,0.9372 z"
         transform="translate(-194.12008,-140)"
         fill="#ffffff"
         id="path3809" />
      <path
         d="m 576.12008,760 h -381 a 1,1 0 0 1 0,-2 h 381 a 1,1 0 1 1 0,2 z"
         transform="translate(-194.12008,-140)"
         fill="#3f3d56"
         id="path3811" />
    </g>
  </g>
</svg>
