<?xml version="1.0" encoding="UTF-8" standalone="no"?>
<!-- Created with Inkscape (http://www.inkscape.org/) -->

<svg
   width="297mm"
   height="210mm"
   viewBox="0 0 297 210"
   version="1.1"
   id="svg5"
   inkscape:version="1.1.1 (c3084ef, 2021-09-22)"
   sodipodi:docname="backgroung-2-1.svg"
   xmlns:inkscape="http://www.inkscape.org/namespaces/inkscape"
   xmlns:sodipodi="http://sodipodi.sourceforge.net/DTD/sodipodi-0.dtd"
   xmlns="http://www.w3.org/2000/svg"
   xmlns:svg="http://www.w3.org/2000/svg">
  <sodipodi:namedview
     id="namedview7"
     pagecolor="#ffffff"
     bordercolor="#666666"
     borderopacity="1.0"
     inkscape:pageshadow="2"
     inkscape:pageopacity="0.0"
     inkscape:pagecheckerboard="0"
     inkscape:document-units="mm"
     showgrid="false"
     units="mm"
     inkscape:snap-tangential="false"
     inkscape:snap-perpendicular="false"
     inkscape:zoom="0.25"
     inkscape:cx="178"
     inkscape:cy="326"
     inkscape:window-width="1280"
     inkscape:window-height="653"
     inkscape:window-x="0"
     inkscape:window-y="25"
     inkscape:window-maximized="0"
     inkscape:current-layer="layer1" />
  <defs
     id="defs2">
    <inkscape:path-effect
       effect="spiro"
       id="path-effect1936"
       is_visible="true"
       lpeversion="1" />
    <inkscape:path-effect
       effect="spiro"
       id="path-effect1432"
       is_visible="true"
       lpeversion="1" />
    <inkscape:path-effect
       effect="spiro"
       id="path-effect1143"
       is_visible="true"
       lpeversion="1" />
    <inkscape:path-effect
       effect="spiro"
       id="path-effect11002"
       is_visible="true"
       lpeversion="1" />
    <inkscape:path-effect
       effect="spiro"
       id="path-effect10945"
       is_visible="true"
       lpeversion="1" />
    <clipPath
       clipPathUnits="userSpaceOnUse"
       id="clipPath1054">
      <rect
         style="fill:#ff0000;stroke:#b2b2b2;stroke-width:0.264583"
         id="rect1056"
         width="590.9267"
         height="181.5265"
         x="-117.79912"
         y="-158.35289" />
    </clipPath>
    <linearGradient
       id="linearGradient3168">
      <stop
         id="stop3170"
         style="stop-color:#f7ec9a"
         offset="0" />
      <stop
         id="stop3176"
         style="stop-color:#f6ea8d"
         offset=".13401" />
      <stop
         id="stop3180"
         style="stop-color:#f5e98a"
         offset=".45674" />
      <stop
         id="stop3178"
         style="stop-color:#f8ed9d"
         offset=".80934" />
      <stop
         id="stop3172"
         style="stop-color:#f5e98a"
         offset="1" />
    </linearGradient>
    <linearGradient
       id="linearGradient1464"
       inkscape:swatch="solid">
      <stop
         style="stop-color:#000000;stop-opacity:1;"
         offset="0"
         id="stop1462" />
    </linearGradient>
  </defs>
  <g
     inkscape:label="Calque 1"
     inkscape:groupmode="layer"
     id="layer1"
     style="display:inline">
    <ellipse
       style="fill:#f5ec7d;fill-opacity:1;fill-rule:evenodd;stroke-width:0.376063"
       id="path47"
       cx="148.76859"
       cy="2.317874"
       rx="156.76413"
       ry="120.15375"
       clip-path="url(#clipPath1054)"
       transform="matrix(-1.0611611,0,0,-0.95387396,307.99257,18.389085)" />
    <g
       id="g4819"
       transform="matrix(0.06775685,0,0,0.0806288,45.738392,96.102819)">
      <path
         d="m 677.54186,336.34717 h -79.74145 a 11.47812,11.47812 0 0 1 -9.06567,-4.39356 v 0 a 11.62154,11.62154 0 0 1 -2.17652,-9.96777 201.63052,201.63052 0 0 0 -4.9e-4,-93.647 11.62425,11.62425 0 0 1 2.17676,-9.96729 11.47753,11.47753 0 0 1 9.06592,-4.39355 h 79.74145 a 11.6235,11.6235 0 0 1 11.439,9.75537 337.96108,337.96108 0 0 1 0,102.8584 11.6235,11.6235 0 0 1 -11.439,9.7554 z"
         transform="translate(-357.08314,-208.25)"
         fill="#e6e6e6"
         id="path4714" />
      <path
         d="m 597.80041,219.978 a 5.51264,5.51264 0 0 0 -4.35449,2.1084 5.65943,5.65943 0 0 0 -1.05371,4.85351 207.656,207.656 0 0 1 4.8e-4,96.44531 5.65638,5.65638 0 0 0 1.053,4.85254 l 4.9e-4,4.9e-4 a 5.5112,5.5112 0 0 0 4.35425,2.10889 h 79.74145 a 5.58248,5.58248 0 0 0 5.50879,-4.667 331.9854,331.9854 0 0 0 0,-101.03516 5.58248,5.58248 0 0 0 -5.50879,-4.667 z"
         transform="translate(-357.08314,-208.25)"
         fill="#ffffff"
         id="path4716" />
      <path
         d="m 660.14054,248.82872 h -41.845 a 6.00633,6.00633 0 0 1 -5.99977,-5.99977 v -2.34463 a 6.00633,6.00633 0 0 1 5.99977,-5.99977 h 41.845 a 6.00633,6.00633 0 0 1 5.99976,5.99977 v 2.34468 a 6.00632,6.00632 0 0 1 -5.99976,5.99972 z"
         transform="translate(-357.08314,-208.25)"
         fill="#e6e6e6"
         id="path4718" />
      <path
         d="m 660.14054,278.4545 h -41.845 a 6.00632,6.00632 0 0 1 -5.99977,-5.99976 v -2.34464 a 6.00632,6.00632 0 0 1 5.99977,-5.99976 h 41.845 a 6.00632,6.00632 0 0 1 5.99976,5.99976 v 2.34464 a 6.00632,6.00632 0 0 1 -5.99976,5.99976 z"
         transform="translate(-357.08314,-208.25)"
         fill="#e6e6e6"
         id="path4720" />
      <path
         d="m 660.14054,308.08029 h -41.845 a 6.00633,6.00633 0 0 1 -5.99977,-5.99977 v -2.34463 a 6.00632,6.00632 0 0 1 5.99977,-5.99976 h 41.845 a 6.00632,6.00632 0 0 1 5.99976,5.99976 v 2.34463 a 6.00632,6.00632 0 0 1 -5.99976,5.99977 z"
         transform="translate(-357.08314,-208.25)"
         fill="#e6e6e6"
         id="path4722" />
      <path
         d="m 827.54186,412.34717 h -79.74145 a 11.47812,11.47812 0 0 1 -9.06567,-4.39356 v 0 a 11.62154,11.62154 0 0 1 -2.17652,-9.96777 201.63052,201.63052 0 0 0 -4.9e-4,-93.647 11.62425,11.62425 0 0 1 2.17676,-9.96729 11.47753,11.47753 0 0 1 9.06592,-4.39355 h 79.74145 a 11.6235,11.6235 0 0 1 11.439,9.75537 337.96108,337.96108 0 0 1 0,102.8584 11.6235,11.6235 0 0 1 -11.439,9.7554 z"
         transform="translate(-357.08314,-208.25)"
         fill="#e6e6e6"
         id="path4724" />
      <path
         d="m 747.80041,295.978 a 5.51264,5.51264 0 0 0 -4.35449,2.1084 5.65943,5.65943 0 0 0 -1.05371,4.85351 207.656,207.656 0 0 1 4.8e-4,96.44531 5.65638,5.65638 0 0 0 1.053,4.85254 l 4.9e-4,4.9e-4 a 5.5112,5.5112 0 0 0 4.35425,2.10889 h 79.74145 a 5.58248,5.58248 0 0 0 5.50879,-4.667 331.9854,331.9854 0 0 0 0,-101.03516 5.58248,5.58248 0 0 0 -5.50879,-4.667 z"
         transform="translate(-357.08314,-208.25)"
         fill="#ffffff"
         id="path4726" />
      <path
         d="m 668.54186,498.84717 h -79.74145 a 11.97546,11.97546 0 0 1 -9.45825,-4.584 12.1192,12.1192 0 0 1 -2.27,-10.394 201.13112,201.13112 0 0 0 -4.9e-4,-93.41357 12.12077,12.12077 0 0 1 2.27026,-10.39356 11.97561,11.97561 0 0 1 9.4585,-4.584 h 79.74145 a 12.12667,12.12667 0 0 1 11.93311,10.1792 338.45925,338.45925 0 0 1 0,103.01074 12.12668,12.12668 0 0 1 -11.93313,10.17919 z"
         transform="translate(-357.08314,-208.25)"
         fill="#f2f2f2"
         id="path4728" />
      <path
         d="m 810.14054,339.82872 h -41.845 a 6.00633,6.00633 0 0 1 -5.99977,-5.99977 v -2.34463 a 6.00633,6.00633 0 0 1 5.99977,-5.99977 h 41.845 a 6.00633,6.00633 0 0 1 5.99976,5.99977 v 2.34468 a 6.00632,6.00632 0 0 1 -5.99976,5.99972 z"
         transform="translate(-357.08314,-208.25)"
         fill="#e6e6e6"
         id="path4730" />
      <path
         d="m 810.14054,369.4545 h -41.845 a 6.00632,6.00632 0 0 1 -5.99977,-5.99976 v -2.34464 a 6.00632,6.00632 0 0 1 5.99977,-5.99976 h 41.845 a 6.00632,6.00632 0 0 1 5.99976,5.99976 v 2.34464 a 6.00632,6.00632 0 0 1 -5.99976,5.99976 z"
         transform="translate(-357.08314,-208.25)"
         fill="#e6e6e6"
         id="path4732" />
      <circle
         cx="271.81104"
         cy="228.5"
         r="23"
         fill="#ffffff"
         id="circle4734" />
      <path
         d="m 639.89416,433.75 h -8 v -8 a 3,3 0 0 0 -6,0 v 8 h -8 a 3,3 0 0 0 0,6 h 8 v 8 a 3,3 0 0 0 6,0 v -8 h 8 a 3,3 0 0 0 0,-6 z"
         transform="translate(-357.08314,-208.25)"
         fill="#e6e6e6"
         id="path4736" />
      <path
         d="m 657.89416,225.25 h -42 a 4.50508,4.50508 0 0 1 -4.5,-4.5 v -8 a 4.50508,4.50508 0 0 1 4.5,-4.5 h 42 a 4.50508,4.50508 0 0 1 4.5,4.5 v 8 a 4.50508,4.50508 0 0 1 -4.5,4.5 z"
         transform="translate(-357.08314,-208.25)"
         fill="#cccccc"
         id="path4738" />
      <path
         d="m 809.89416,302.25 h -42 a 4.50508,4.50508 0 0 1 -4.5,-4.5 v -8 a 4.50508,4.50508 0 0 1 4.5,-4.5 h 42 a 4.50508,4.50508 0 0 1 4.5,4.5 v 8 a 4.50508,4.50508 0 0 1 -4.5,4.5 z"
         transform="translate(-357.08314,-208.25)"
         fill="#cccccc"
         id="path4740" />
      <polygon
         points="88.594,423.773 88.596,471.061 100.856,471.061 104.689,423.773 "
         fill="#ffb8b8"
         id="polygon4742" />
      <path
         d="m 442.55234,675.30845 24.1438,-10e-4 h 10e-4 a 15.38605,15.38605 0 0 1 15.38647,15.38623 v 0.5 l -39.53051,10e-4 z"
         transform="translate(-357.08314,-208.25)"
         fill="#2f2e41"
         id="path4744" />
      <polygon
         points="22.594,423.773 22.596,471.061 34.856,471.061 40.689,423.773 "
         fill="#ffb8b8"
         id="polygon4746" />
      <path
         d="m 376.55234,675.30845 24.1438,-10e-4 h 10e-4 a 15.38605,15.38605 0 0 1 15.38647,15.38623 v 0.5 l -39.53051,10e-4 z"
         transform="translate(-357.08314,-208.25)"
         fill="#2f2e41"
         id="path4748" />
      <path
         d="m 381.85436,664.37256 a 4.98141,4.98141 0 0 1 -3.375,-1.31836 v 0 a 4.961,4.961 0 0 1 -1.61572,-3.53711 l -4.91664,-176.21338 69.81115,17.45215 21.53955,64.61768 a 70.461,70.461 0 0 1 3.54541,25.82421 l -2.67456,62.63672 a 4.996,4.996 0 0 1 -4.99438,4.75879 h -11.709 a 5.02349,5.02349 0 0 1 -4.95483,-4.32959 l -8.3689,-69.1416 a 37.82338,37.82338 0 0 0 -5.53173,-15.16406 l -16.46949,-26.07617 a 1.00011,1.00011 0 0 0 -1.83764,0.41015 L 397.378,659.38037 a 4.99328,4.99328 0 0 1 -4.687,4.39649 l -10.552,0.58691 c -0.0949,0.005 -0.18966,0.009 -0.28464,0.009 z"
         transform="translate(-357.08314,-208.25)"
         fill="#2f2e41"
         id="path4750" />
      <circle
         cx="73.057671"
         cy="136.4061"
         r="24.561029"
         fill="#ffb8b8"
         id="circle4752" />
      <path
         d="m 441.4237,507.92236 a 5.07628,5.07628 0 0 1 -1.25293,-0.15918 H 440.17 l -69.26428,-17.75976 a 4.9985,4.9985 0 0 1 -3.66285,-5.81543 L 383.15,398.49707 a 31.21377,31.21377 0 0 1 18.24975,-22.53955 30.11308,30.11308 0 0 1 28.26563,2.07519 c 0.96973,0.605 1.94653,1.26465 2.90259,1.96094 a 30.96046,30.96046 0 0 1 12.57885,24.5293 l 1.2649,98.32861 a 5.00656,5.00656 0 0 1 -4.988,5.0708 z"
         transform="translate(-357.08314,-208.25)"
         fill="#2219c4"
         id="path4754"
         style="fill:#ffae1a;fill-opacity:1" />
      <path
         d="m 378.03248,508.93008 a 10.05576,10.05576 0 0 1 4.214,-14.83233 l -3.08079,-35.6018 16.326,8.84848 0.42262,32.4515 a 10.11027,10.11027 0 0 1 -17.8818,9.13415 z"
         transform="translate(-357.08314,-208.25)"
         fill="#ffb8b8"
         id="path4756" />
      <path
         d="m 383.86511,489.38916 a 5.53224,5.53224 0 0 1 -1.36573,-0.17285 5.49559,5.49559 0 0 1 -3.97192,-3.98633 l -8.02319,-31.88379 a 47.37028,47.37028 0 0 1 3.76123,-33.13476 l 16.80884,-32.88184 a 15.54083,15.54083 0 0 1 18.8081,-11.01855 15.35574,15.35574 0 0 1 9.47485,7.10058 15.56707,15.56707 0 0 1 1.65406,11.91309 l -23.92749,53.50586 0.28418,32.03564 a 5.5186,5.5186 0 0 1 -3.58448,5.20459 l -8.00732,2.97363 a 5.48,5.48 0 0 1 -1.91113,0.34473 z"
         transform="translate(-357.08314,-208.25)"
         fill="#2219c4"
         id="path4758"
         style="fill:#ffae1a;fill-opacity:1" />
      <path
         d="m 498.40087,495.83467 a 10.05578,10.05578 0 0 1 -8.493,-12.86954 l -28.99341,-20.88926 17.35654,-6.60182 24.8717,20.84893 a 10.11027,10.11027 0 0 1 -4.74186,19.51169 z"
         transform="translate(-357.08314,-208.25)"
         fill="#ffb8b8"
         id="path4760" />
      <path
         d="m 483.223,480.58057 a 5.52249,5.52249 0 0 1 -2.46265,-0.58155 L 451.3612,465.28174 A 47.381,47.381 0 0 1 428.70056,440.81641 L 414.74328,406.626 a 15.54363,15.54363 0 0 1 3.91772,-21.44434 15.35158,15.35158 0 0 1 11.59034,-2.54346 15.56975,15.56975 0 0 1 10.08081,6.51221 l 24.94507,53.03955 24.46578,20.6826 a 5.51764,5.51764 0 0 1 1.60669,6.11182 l -2.96973,8.0083 a 5.474,5.474 0 0 1 -2.00684,2.59619 5.49717,5.49717 0 0 1 -3.15014,0.9917 z"
         transform="translate(-357.08314,-208.25)"
         fill="#2219c4"
         id="path4762"
         style="fill:#ffae1a;fill-opacity:1" />
      <path
         d="m 424.98332,369.5931 c 1.305,0.571 3.97732,-9.82732 2.78025,-11.90707 -1.78025,-3.09293 -1.675,-3.07072 -2.85681,-5.117 -1.18181,-2.04628 -1.44623,-4.84712 0.0842,-6.64761 1.5304,-1.80049 5.072,-1.56163 5.77042,0.69581 -0.4493,-4.2878 3.79189,-7.73454 7.993,-8.70313 4.20111,-0.96859 8.63244,-0.36723 12.85668,-1.22917 4.90243,-1.00032 10.00316,-5.10972 8.04719,-10.5007 a 7.5931,7.5931 0 0 0 -1.48106,-2.43408 c -2.25993,-2.54094 -5.42117,-3.62594 -8.512,-4.675 -6.43006,-2.18246 -13.036,-4.39233 -19.82212,-4.15141 a 28.7977,28.7977 0 0 0 -25.44634,18.60926 26.15571,26.15571 0 0 0 -1.08344,4.02534 c -2.32924,12.52423 4.94368,24.87794 16.75623,29.64715 z"
         transform="translate(-357.08314,-208.25)"
         fill="#2f2e41"
         id="path4764" />
      <polygon
         points="42.9,241.343 38.9,273.343 39.457,240.414 56.9,205.343 "
         opacity="0.2"
         id="polygon4766" />
      <path
         d="M 554.16035,564.23244 480.522,533.63692 a 11.47817,11.47817 0 0 1 -6.68609,-7.53565 v 0 a 11.62155,11.62155 0 0 1 1.81454,-10.04 201.63062,201.63062 0 0 0 35.9304,-86.47983 11.62422,11.62422 0 0 1 5.83445,-8.36925 11.47751,11.47751 0 0 1 10.05779,-0.57884 l 73.63839,30.59552 a 11.62349,11.62349 0 0 1 6.8205,13.39769 337.96147,337.96147 0 0 1 -39.46512,94.98607 11.6235,11.6235 0 0 1 -14.30651,4.61981 z"
         fill="#e6e6e6"
         id="path4768"
         transform="translate(-357.08314,-208.25)" />
      <path
         d="m 525.17093,426.17415 a 5.51263,5.51263 0 0 0 -4.83017,0.27629 5.65945,5.65945 0 0 0 -2.83529,4.07775 207.65608,207.65608 0 0 1 -37.00407,89.064 5.65636,5.65636 0 0 0 -0.88946,4.88515 l 2.7e-4,6.4e-4 a 5.51116,5.51116 0 0 0 3.21185,3.61814 l 73.63839,30.59552 a 5.58247,5.58247 0 0 0 6.87782,-2.19616 331.98566,331.98566 0 0 0 38.76558,-93.30238 5.58248,5.58248 0 0 0 -3.29652,-6.42343 z"
         transform="translate(-357.08314,-208.25)"
         fill="#ffffff"
         id="path4770" />
      <path
         d="m 564.38028,494.28148 -38.6424,-16.05527 a 6.00633,6.00633 0 0 1 -3.23855,-7.84259 l 0.8996,-2.16518 a 6.00632,6.00632 0 0 1 7.84258,-3.23856 l 38.6424,16.05527 a 6.00634,6.00634 0 0 1 3.23855,7.84259 l -0.8996,2.16518 a 6.00632,6.00632 0 0 1 -7.84258,3.23856 z"
         transform="translate(-357.08314,-208.25)"
         fill="#2219c4"
         id="path4772"
         style="fill:#ffae1a;fill-opacity:1" />
      <path
         d="m 553.01334,521.63984 -38.6424,-16.05527 a 6.00633,6.00633 0 0 1 -3.23855,-7.84259 l 0.89959,-2.16518 a 6.00634,6.00634 0 0 1 7.84259,-3.23856 l 38.64243,16.05527 a 6.00633,6.00633 0 0 1 3.23856,7.84258 l -0.8996,2.16519 a 6.00632,6.00632 0 0 1 -7.84262,3.23856 z"
         transform="translate(-357.08314,-208.25)"
         fill="#2219c4"
         id="path4774"
         style="fill:#ffae1a;fill-opacity:1" />
      <path
         d="m 579.86437,455.832 a 4.48944,4.48944 0 0 1 -1.68725,-0.33057 l -38.938,-15.74267 a 4.50518,4.50518 0 0 1 -2.48535,-5.8584 l 2.99878,-7.417 a 4.50027,4.50027 0 0 1 5.85864,-2.48486 l 38.938,15.74267 a 4.50518,4.50518 0 0 1 2.48535,5.8584 l -2.99878,7.417 a 4.51079,4.51079 0 0 1 -4.17139,2.81543 z"
         transform="translate(-357.08314,-208.25)"
         fill="#cccccc"
         id="path4776" />
      <path
         d="m 498.08314,691.75 h -140 a 1,1 0 1 1 0,-2 h 140 a 1,1 0 0 1 0,2 z"
         transform="translate(-357.08314,-208.25)"
         fill="#cccccc"
         id="path4778" />
    </g>
  </g>
</svg>
