<?xml version="1.0" encoding="UTF-8" standalone="no"?>
<!-- Created with Inkscape (http://www.inkscape.org/) -->

<svg
   width="297mm"
   height="210mm"
   viewBox="0 0 297 210"
   version="1.1"
   id="svg5"
   inkscape:version="1.1.1 (c3084ef, 2021-09-22)"
   sodipodi:docname="backgroung-2.svg"
   xmlns:inkscape="http://www.inkscape.org/namespaces/inkscape"
   xmlns:sodipodi="http://sodipodi.sourceforge.net/DTD/sodipodi-0.dtd"
   xmlns="http://www.w3.org/2000/svg"
   xmlns:svg="http://www.w3.org/2000/svg">
  <sodipodi:namedview
     id="namedview7"
     pagecolor="#ffffff"
     bordercolor="#666666"
     borderopacity="1.0"
     inkscape:pageshadow="2"
     inkscape:pageopacity="0.0"
     inkscape:pagecheckerboard="0"
     inkscape:document-units="mm"
     showgrid="false"
     units="mm"
     inkscape:snap-tangential="false"
     inkscape:snap-perpendicular="false"
     inkscape:zoom="0.53540264"
     inkscape:cx="208.25448"
     inkscape:cy="398.76531"
     inkscape:window-width="1280"
     inkscape:window-height="653"
     inkscape:window-x="0"
     inkscape:window-y="33"
     inkscape:window-maximized="0"
     inkscape:current-layer="layer1" />
  <defs
     id="defs2">
    <inkscape:path-effect
       effect="spiro"
       id="path-effect1936"
       is_visible="true"
       lpeversion="1" />
    <inkscape:path-effect
       effect="spiro"
       id="path-effect1432"
       is_visible="true"
       lpeversion="1" />
    <inkscape:path-effect
       effect="spiro"
       id="path-effect1143"
       is_visible="true"
       lpeversion="1" />
    <inkscape:path-effect
       effect="spiro"
       id="path-effect11002"
       is_visible="true"
       lpeversion="1" />
    <inkscape:path-effect
       effect="spiro"
       id="path-effect10945"
       is_visible="true"
       lpeversion="1" />
    <clipPath
       clipPathUnits="userSpaceOnUse"
       id="clipPath1054">
      <rect
         style="fill:#ff0000;stroke:#b2b2b2;stroke-width:0.264583"
         id="rect1056"
         width="590.9267"
         height="181.5265"
         x="-117.79912"
         y="-158.35289" />
    </clipPath>
    <linearGradient
       id="linearGradient3168">
      <stop
         id="stop3170"
         style="stop-color:#f7ec9a"
         offset="0" />
      <stop
         id="stop3176"
         style="stop-color:#f6ea8d"
         offset=".13401" />
      <stop
         id="stop3180"
         style="stop-color:#f5e98a"
         offset=".45674" />
      <stop
         id="stop3178"
         style="stop-color:#f8ed9d"
         offset=".80934" />
      <stop
         id="stop3172"
         style="stop-color:#f5e98a"
         offset="1" />
    </linearGradient>
    <linearGradient
       id="linearGradient1464"
       inkscape:swatch="solid">
      <stop
         style="stop-color:#000000;stop-opacity:1;"
         offset="0"
         id="stop1462" />
    </linearGradient>
  </defs>
  <g
     inkscape:label="Calque 1"
     inkscape:groupmode="layer"
     id="layer1"
     style="display:inline">
    <ellipse
       style="fill:#fcf171;fill-rule:evenodd;stroke-width:0.376063"
       id="path47"
       cx="148.76859"
       cy="2.317874"
       rx="156.76416"
       ry="120.15375"
       clip-path="url(#clipPath1054)"
       transform="matrix(-1.0611611,0,0,-0.95387396,321.75099,18.389085)" />
    <g
       id="g2410"
       transform="matrix(0.06357222,0,0,0.08340454,44.5067,90.003577)">
      <path
         d="M 504.621,513.18165 351.97511,545.35672 A 17.01916,17.01916 0 0 1 331.83436,532.2285 L 305.64055,407.95909 a 17.01916,17.01916 0 0 1 13.12823,-20.14074 l 152.64588,-32.17507 a 17.01915,17.01915 0 0 1 20.14074,13.12822 l 26.19381,124.26941 A 17.01916,17.01916 0 0 1 504.621,513.18165 Z M 319.1813,389.77535 a 15.017,15.017 0 0 0 -11.58373,17.77124 L 333.79136,531.816 a 15.017,15.017 0 0 0 17.77124,11.58373 l 152.64588,-32.17508 a 15.017,15.017 0 0 0 11.58374,-17.77124 L 489.59841,369.184 a 15.017,15.017 0 0 0 -17.77125,-11.58373 z"
         transform="translate(-231.30512,-178)"
         fill="#3f3d56"
         id="path2192" />
      <path
         id="ea648e8d-1b31-4ae2-9566-f54bfd0d94c9-39"
         data-name="Path 411"
         d="M 461.93038,396.61842 384.892,412.85676 a 2.73089,2.73089 0 0 1 -3.22932,-1.86307 2.63064,2.63064 0 0 1 1.99859,-3.25411 L 462.08161,391.21 c 3.06195,1.72557 2.09419,4.93517 -0.15219,5.40867 z"
         transform="translate(-231.30512,-178)"
         fill="#cccccc" />
      <path
         id="b4f9d9e0-1a47-44a2-8a19-0d88a6e9c18f-40"
         data-name="Path 412"
         d="m 464.77869,410.13147 -77.03838,16.23835 a 2.73089,2.73089 0 0 1 -3.22931,-1.86308 2.63063,2.63063 0 0 1 1.99859,-3.2541 L 464.92993,404.723 c 3.06195,1.72558 2.09418,4.93518 -0.1522,5.40867 z"
         transform="translate(-231.30512,-178)"
         fill="#cccccc" />
      <path
         id="e168965a-63e1-4676-8cbb-3e09d33a4a3f-41"
         data-name="Path 413"
         d="m 372.70815,437.57411 -23.51136,4.95578 a 2.962,2.962 0 0 1 -3.50569,-2.28509 l -5.84823,-27.74533 a 2.962,2.962 0 0 1 2.28509,-3.50569 l 23.51137,-4.95578 a 2.963,2.963 0 0 1 3.50569,2.28509 l 5.84823,27.74536 a 2.962,2.962 0 0 1 -2.28509,3.50569 z"
         transform="translate(-231.30512,-178)"
         fill="#cccccc" />
      <path
         id="af0ff97e-1a3a-4f6f-a511-2c807a938985-42"
         data-name="Path 414"
         d="m 470.38655,437.84676 -117.57469,24.78268 a 2.73086,2.73086 0 0 1 -3.22929,-1.86306 2.63063,2.63063 0 0 1 1.99859,-3.25412 l 118.95758,-25.07417 c 3.06195,1.72557 2.09419,4.93517 -0.15219,5.40867 z"
         transform="translate(-231.30512,-178)"
         fill="#cccccc" />
      <path
         id="e60f2d91-ad3b-421b-94cb-3aa0f5092f21-43"
         data-name="Path 415"
         d="M 473.2357,451.36376 355.661,476.14645 a 2.73087,2.73087 0 0 1 -3.22929,-1.86306 2.63063,2.63063 0 0 1 1.99858,-3.25412 l 118.95759,-25.07418 c 3.06195,1.72558 2.09418,4.93518 -0.15219,5.40867 z"
         transform="translate(-231.30512,-178)"
         fill="#cccccc" />
      <path
         id="a5554f8b-57e8-4c3b-815c-c76cc46b61b5-44"
         data-name="Path 416"
         d="m 476.083,464.87193 -117.57471,24.78269 a 2.73088,2.73088 0 0 1 -3.22929,-1.86307 2.63062,2.63062 0 0 1 1.99859,-3.25411 l 118.95759,-25.07418 c 3.06195,1.72558 2.09418,4.93517 -0.1522,5.40867 z"
         transform="translate(-231.30512,-178)"
         fill="#cccccc" />
      <path
         id="eee68bf7-fbe9-4bfc-85ae-b0141fb14f45-45"
         data-name="Path 417"
         d="m 478.93192,478.38793 -117.57469,24.78269 a 2.73087,2.73087 0 0 1 -3.22929,-1.86307 2.63061,2.63061 0 0 1 1.99858,-3.25411 l 118.95759,-25.07418 c 3.06195,1.72558 2.09418,4.93517 -0.15219,5.40867 z"
         transform="translate(-231.30512,-178)"
         fill="#cccccc" />
      <path
         id="b9a7afa1-162f-46e2-88e2-f572ab59fc71-46"
         data-name="Path 418"
         d="M 481.77942,491.89711 364.20473,516.6798 a 2.73087,2.73087 0 0 1 -3.22929,-1.86307 2.6306,2.6306 0 0 1 1.99858,-3.25411 l 118.95759,-25.07418 c 3.062,1.72558 2.09418,4.93518 -0.15219,5.40867 z"
         transform="translate(-231.30512,-178)"
         fill="#cccccc" />
      <path
         d="m 500.534,430.03021 a 10.52747,10.52747 0 0 0 -0.68327,1.51012 l -48.13337,11.94434 -8.37345,-8.66256 -14.725,10.92831 13.33321,16.77594 a 8,8 0 0 0 9.289,2.428 l 52.22933,-21.34222 a 10.49709,10.49709 0 1 0 -2.93641,-13.5819 z"
         transform="translate(-231.30512,-178)"
         fill="#ffb8b8"
         id="path2202" />
      <path
         d="m 336.23731,536.32254 a 10.7427,10.7427 0 0 0 6.37825,-15.18767 l 33.12422,-92.06728 -23.00366,-4.07668 -25.32663,91.781 a 10.8009,10.8009 0 0 0 8.82782,19.55061 z"
         transform="translate(-231.30512,-178)"
         fill="#ffb8b8"
         id="path2204" />
      <path
         d="m 371.533,445.41054 -22.71252,-8.71684 a 4.81687,4.81687 0 0 1 -2.46974,-6.863 l 11.915,-21.1257 a 13.37737,13.37737 0 0 1 24.95,9.65954 l -5.25553,23.59756 a 4.81687,4.81687 0 0 1 -6.42721,3.44849 z"
         transform="translate(-231.30512,-178)"
         fill="#2219c4"
         id="path2206" />
      <polygon
         points="191.491,483.888 191.493,531.175 203.752,531.175 209.585,483.887 "
         fill="#ffb8b8"
         id="polygon2208" />
      <path
         d="m 419.67063,705.17279 24.1438,-10e-4 h 10e-4 a 15.38605,15.38605 0 0 1 15.38645,15.38621 v 0.5 l -39.53051,10e-4 z"
         transform="translate(-231.30512,-178)"
         fill="#2f2e41"
         id="path2210" />
      <polygon
         points="122.491,483.888 122.493,531.175 134.752,531.175 140.585,483.887 "
         fill="#ffb8b8"
         id="polygon2212" />
      <path
         d="m 350.67063,705.17279 24.1438,-10e-4 h 10e-4 a 15.38605,15.38605 0 0 1 15.38645,15.38621 v 0.5 l -39.53051,10e-4 z"
         transform="translate(-231.30512,-178)"
         fill="#2f2e41"
         id="path2214" />
      <path
         d="m 366.6504,690.14248 h -15.51465 a 4.50042,4.50042 0 0 1 -4.49487,-4.71387 l 7.36938,-158.332 0.46436,-0.0127 74.91919,-1.95312 14.6604,158.42285 a 4.50022,4.50022 0 0 1 -4.12085,4.91113 l -17.42627,1.39356 a 4.50225,4.50225 0 0 1 -4.76709,-3.582 L 395.44972,573.4999 a 1.45375,1.45375 0 0 0 -1.469,-1.19922 h -0.006 a 1.45449,1.45449 0 0 0 -1.46631,1.21094 l -21.44263,113 a 4.50951,4.50951 0 0 1 -4.41528,3.63086 z"
         transform="translate(-231.30512,-178)"
         fill="#2f2e41"
         id="path2216" />
      <circle
         cx="163.765"
         cy="183.32358"
         r="24.561029"
         fill="#ffb8b8"
         id="circle2218" />
      <path
         d="m 386.83448,545.65127 c -11.7063,0 -23.73022,-3.07715 -33.698,-12.17481 a 4.55187,4.55187 0 0 1 -1.46949,-3.84961 c 1.0669,-9.58594 6.24219,-59.081 3.32764,-92.14355 a 40.01955,40.01955 0 0 1 12.95557,-33.30469 39.59814,39.59814 0 0 1 33.96215,-9.834 h 2.5e-4 c 0.30591,0.0547 0.61157,0.1123 0.91772,0.17089 19.66358,3.80567 33.32593,22.00391 31.78,42.33106 -2.25586,29.66016 -4.27807,69.7793 -1.10278,92.46777 a 4.49262,4.49262 0 0 1 -2.4148,4.63672 c -7.22481,3.65041 -25.32613,11.70022 -44.25826,11.70022 z"
         transform="translate(-231.30512,-178)"
         fill="#2219c4"
         id="path2220" />
      <path
         d="m 418.88372,447.17782 a 4.81168,4.81168 0 0 1 -2.10947,-3.41136 l -2.99231,-23.98982 a 13.37737,13.37737 0 0 1 25.75414,-7.24809 l 9.85629,22.16112 a 4.81688,4.81688 0 0 1 -3.10993,6.59769 l -23.43727,6.522 a 4.81146,4.81146 0 0 1 -3.96145,-0.63154 z"
         transform="translate(-231.30512,-178)"
         fill="#2219c4"
         id="path2222" />
      <path
         d="m 386.496,385.53781 a 17.59793,17.59793 0 0 1 -6.79721,-1.2298 c -0.95139,-0.36664 -1.939,-0.668 -2.88862,-1.03489 -8.38662,-3.24017 -13.91121,-12.17188 -14.10907,-21.16048 -0.19786,-8.9886 4.457,-17.71287 11.36912,-23.46238 6.91212,-5.74951 15.865,-8.70134 24.82986,-9.38394 9.65661,-0.73527 20.53026,1.7136 25.92627,9.7556 1.43633,2.14065 2.44084,4.73783 1.58976,7.32246 a 4.68564,4.68564 0 0 1 -1.32028,2.028 c -2.40979,2.144 -4.81223,0.53191 -7.2688,0.38948 -3.37653,-0.19576 -6.40925,2.53734 -7.49925,5.73908 -1.09,3.20174 -0.61019,6.7266 0.26991,9.99228 a 24.96206,24.96206 0 0 1 1.25825,6.07589 6.1083,6.1083 0 0 1 -2.53094,5.37854 c -2.10991,1.27536 -4.88078,0.53724 -6.99193,-0.73607 -2.11115,-1.27331 -3.93535,-3.04373 -6.21577,-3.98072 -2.28042,-0.93699 -5.3442,-0.72915 -6.6715,1.34848 a 7.379,7.379 0 0 0 -0.84344,2.43522 c -1.18992,5.42125 -0.91644,5.102 -2.10636,10.52322 z"
         transform="translate(-231.30512,-178)"
         fill="#2f2e41"
         id="path2224" />
      <path
         d="m 726.69488,352 h -156 a 17.01917,17.01917 0 0 1 -17,-17 V 208 a 17.01917,17.01917 0 0 1 17,-17 h 156 a 17.01917,17.01917 0 0 1 17,17 v 127 a 17.01917,17.01917 0 0 1 -17,17 z m -156,-159 a 15.017,15.017 0 0 0 -15,15 v 127 a 15.017,15.017 0 0 0 15,15 h 156 a 15.017,15.017 0 0 0 15,-15 V 208 a 15.017,15.017 0 0 0 -15,-15 z"
         transform="translate(-231.30512,-178)"
         fill="#3f3d56"
         id="path2226" />
      <path
         id="eb40ba0f-f2ca-41e6-ba2e-bd824fb45cdc-47"
         data-name="Path 411"
         d="m 708.96338,229.138 h -78.73117 a 2.73088,2.73088 0 0 1 -2.77562,-2.48906 2.63064,2.63064 0 0 1 2.62678,-2.77193 h 80.14349 c 2.64021,2.32 1.03128,5.261 -1.26446,5.261 z"
         transform="translate(-231.30512,-178)"
         fill="#cccccc" />
      <path
         id="ea390b26-798a-41d7-8695-eb41cfeb13d4-48"
         data-name="Path 412"
         d="m 708.96338,242.948 h -78.73117 a 2.73088,2.73088 0 0 1 -2.77562,-2.48906 2.63064,2.63064 0 0 1 2.62678,-2.77193 h 80.14349 c 2.64021,2.32 1.03128,5.261 -1.26446,5.261 z"
         transform="translate(-231.30512,-178)"
         fill="#cccccc" />
      <path
         id="f9b4f79e-9356-48bc-89d8-91f80de67df3-49"
         data-name="Path 413"
         d="m 613.21237,250.811 h -24.028 a 2.962,2.962 0 0 1 -2.959,-2.959 v -28.355 a 2.962,2.962 0 0 1 2.959,-2.959 h 24.028 a 2.963,2.963 0 0 1 2.959,2.959 v 28.355 a 2.962,2.962 0 0 1 -2.959,2.959 z"
         transform="translate(-231.30512,-178)"
         fill="#3f3d56" />
      <path
         id="f3294a48-db04-45e1-afc8-dab6eb28e529-50"
         data-name="Path 414"
         d="M 708.73437,271.224 H 588.57619 a 2.73087,2.73087 0 0 1 -2.7756,-2.489 2.63061,2.63061 0 0 1 2.62677,-2.77194 h 121.57147 c 2.64022,2.32 1.03128,5.261 -1.26446,5.261 z"
         transform="translate(-231.30512,-178)"
         fill="#cccccc" />
      <path
         id="bb6dba8b-bb0a-4f92-a6ea-c6252f741607-51"
         data-name="Path 415"
         d="M 708.73437,285.038 H 588.57619 a 2.73087,2.73087 0 0 1 -2.7756,-2.48905 2.63061,2.63061 0 0 1 2.62677,-2.77194 h 121.57147 c 2.64022,2.32 1.03128,5.261 -1.26446,5.261 z"
         transform="translate(-231.30512,-178)"
         fill="#cccccc" />
      <path
         id="b1d451cb-91ad-40cf-876e-6a74c98e5c4f-52"
         data-name="Path 416"
         d="M 708.73437,298.843 H 588.57619 a 2.73086,2.73086 0 0 1 -2.7756,-2.48905 2.63061,2.63061 0 0 1 2.62677,-2.77194 h 121.57147 c 2.64022,2.32 1.03128,5.261 -1.26446,5.261 z"
         transform="translate(-231.30512,-178)"
         fill="#cccccc" />
      <path
         id="bcef27e7-bcca-4cc4-a6d4-200e9e04132c-53"
         data-name="Path 417"
         d="M 708.73437,312.656 H 588.57619 a 2.73086,2.73086 0 0 1 -2.7756,-2.489 2.63061,2.63061 0 0 1 2.62677,-2.77194 h 121.57147 c 2.64022,2.32 1.03128,5.261 -1.26446,5.261 z"
         transform="translate(-231.30512,-178)"
         fill="#cccccc" />
      <path
         id="ed29f808-f3a3-4ac8-bd45-563f73aa9d8b-54"
         data-name="Path 418"
         d="M 708.73437,326.462 H 588.57619 a 2.73087,2.73087 0 0 1 -2.7756,-2.48905 2.63062,2.63062 0 0 1 2.62677,-2.77195 h 121.57147 c 2.64022,2.32 1.03128,5.261 -1.26446,5.261 z"
         transform="translate(-231.30512,-178)"
         fill="#cccccc" />
      <path
         d="m 692.69488,178 a 5.00573,5.00573 0 0 1 5,5 v 16 a 5.00573,5.00573 0 0 1 -5,5 h -88 a 5.00573,5.00573 0 0 1 -5,-5 v -16 a 5.00573,5.00573 0 0 1 5,-5"
         transform="translate(-231.30512,-178)"
         fill="#2219c4"
         id="path2236" />
      <path
         d="m 951.69488,509 h -156 a 17.01917,17.01917 0 0 1 -17,-17 V 365 a 17.01917,17.01917 0 0 1 17,-17 h 156 a 17.01917,17.01917 0 0 1 17,17 v 127 a 17.01917,17.01917 0 0 1 -17,17 z m -156,-159 a 15.017,15.017 0 0 0 -15,15 v 127 a 15.017,15.017 0 0 0 15,15 h 156 a 15.017,15.017 0 0 0 15,-15 V 365 a 15.017,15.017 0 0 0 -15,-15 z"
         transform="translate(-231.30512,-178)"
         fill="#3f3d56"
         id="path2238" />
      <path
         id="ab56b95a-ad0a-4db6-b885-1de339e59248-55"
         data-name="Path 411"
         d="m 933.96338,386.138 h -78.73117 a 2.73088,2.73088 0 0 1 -2.77562,-2.48906 2.63064,2.63064 0 0 1 2.62678,-2.77193 h 80.14349 c 2.64021,2.32 1.03128,5.261 -1.26446,5.261 z"
         transform="translate(-231.30512,-178)"
         fill="#3f3d56" />
      <path
         id="a65ba0e0-92d5-467b-b937-6962ba88422c-56"
         data-name="Path 412"
         d="m 933.96338,399.948 h -78.73117 a 2.73088,2.73088 0 0 1 -2.77562,-2.48906 2.63064,2.63064 0 0 1 2.62678,-2.77193 h 80.14349 c 2.64021,2.32 1.03128,5.261 -1.26446,5.261 z"
         transform="translate(-231.30512,-178)"
         fill="#3f3d56" />
      <path
         id="fb801fe4-3edc-4e65-9957-dec023933e0a-57"
         data-name="Path 413"
         d="m 838.21237,407.811 h -24.028 a 2.962,2.962 0 0 1 -2.959,-2.959 v -28.355 a 2.962,2.962 0 0 1 2.959,-2.959 h 24.028 a 2.963,2.963 0 0 1 2.959,2.959 v 28.355 a 2.962,2.962 0 0 1 -2.959,2.959 z"
         transform="translate(-231.30512,-178)"
         fill="#cccccc" />
      <path
         id="faab0864-6611-44c5-86ab-6dd51d336b1d-58"
         data-name="Path 413"
         d="m 933.21237,484.811 h -24.028 a 2.962,2.962 0 0 1 -2.959,-2.959 v -16.355 a 2.962,2.962 0 0 1 2.959,-2.959 h 24.028 a 2.963,2.963 0 0 1 2.959,2.959 v 16.355 a 2.962,2.962 0 0 1 -2.959,2.959 z"
         transform="translate(-231.30512,-178)"
         fill="#3f3d56" />
      <path
         id="ada3facf-2b93-40cb-83c6-b6d8dc380c35-59"
         data-name="Path 414"
         d="M 933.73437,428.224 H 813.57619 a 2.73087,2.73087 0 0 1 -2.7756,-2.489 2.63061,2.63061 0 0 1 2.62677,-2.77194 h 121.57147 c 2.64022,2.32 1.03128,5.261 -1.26446,5.261 z"
         transform="translate(-231.30512,-178)"
         fill="#cccccc" />
      <path
         id="a50891a7-c495-4965-ab40-a1f907e5cce2-60"
         data-name="Path 415"
         d="M 933.73437,442.038 H 813.57619 a 2.73087,2.73087 0 0 1 -2.7756,-2.48905 2.63061,2.63061 0 0 1 2.62677,-2.77194 h 121.57147 c 2.64022,2.32 1.03128,5.261 -1.26446,5.261 z"
         transform="translate(-231.30512,-178)"
         fill="#cccccc" />
      <path
         id="f645be9d-0c31-4d92-bfb2-feede413f090-61"
         data-name="Path 416"
         d="M 933.73437,455.843 H 813.57619 a 2.73086,2.73086 0 0 1 -2.7756,-2.48905 2.63061,2.63061 0 0 1 2.62677,-2.77194 h 121.57147 c 2.64022,2.32 1.03128,5.261 -1.26446,5.261 z"
         transform="translate(-231.30512,-178)"
         fill="#cccccc" />
      <path
         id="f96ba49d-c571-4857-91da-e214cd5ba82f-62"
         data-name="Path 417"
         d="m 870.73437,469.656 h -57.15818 a 2.73086,2.73086 0 0 1 -2.7756,-2.489 2.63061,2.63061 0 0 1 2.62677,-2.77194 h 58.57147 c 2.64022,2.32 1.03128,5.261 -1.26446,5.261 z"
         transform="translate(-231.30512,-178)"
         fill="#cccccc" />
      <path
         id="a7214c6f-9d52-425a-b9ef-635698aec079-63"
         data-name="Path 418"
         d="m 870.73437,483.462 h -57.15818 a 2.73087,2.73087 0 0 1 -2.7756,-2.48905 2.63062,2.63062 0 0 1 2.62677,-2.77195 h 58.57147 c 2.64022,2.32 1.03128,5.261 -1.26446,5.261 z"
         transform="translate(-231.30512,-178)"
         fill="#cccccc" />
      <path
         d="m 917.69488,361 h -88 a 5.00573,5.00573 0 0 1 -5,-5 v -16 a 5.00573,5.00573 0 0 1 5,-5 h 88 a 5.00573,5.00573 0 0 1 5,5 v 16 a 5.00573,5.00573 0 0 1 -5,5 z"
         transform="translate(-231.30512,-178)"
         fill="#2219c4"
         id="path2249" />
      <path
         d="m 613.30512,722 h -381 a 1,1 0 0 1 0,-2 h 381 a 1,1 0 0 1 0,2 z"
         transform="translate(-231.30512,-178)"
         fill="#3f3d56"
         id="path2251" />
      <circle
         cx="96.763779"
         cy="23.324301"
         r="6.4668899"
         fill="#f2f2f2"
         id="circle2253" />
      <circle
         cx="96.763779"
         cy="49.097599"
         r="6.4668899"
         fill="#f2f2f2"
         id="circle2255" />
      <circle
         cx="96.763779"
         cy="74.870903"
         r="6.4668899"
         fill="#f2f2f2"
         id="circle2257" />
      <circle
         cx="96.763779"
         cy="100.6442"
         r="6.4668899"
         fill="#f2f2f2"
         id="circle2259" />
      <circle
         cx="123.76378"
         cy="23.324301"
         r="6.4668899"
         fill="#f2f2f2"
         id="circle2261" />
      <circle
         cx="123.76378"
         cy="49.097599"
         r="6.4668899"
         fill="#f2f2f2"
         id="circle2263" />
      <circle
         cx="123.76378"
         cy="74.870903"
         r="6.4668899"
         fill="#f2f2f2"
         id="circle2265" />
      <circle
         cx="123.76378"
         cy="100.6442"
         r="6.4668899"
         fill="#f2f2f2"
         id="circle2267" />
      <circle
         cx="150.76378"
         cy="23.324301"
         r="6.4668899"
         fill="#f2f2f2"
         id="circle2269" />
      <circle
         cx="150.76378"
         cy="49.097599"
         r="6.4668899"
         fill="#f2f2f2"
         id="circle2271" />
      <circle
         cx="150.76378"
         cy="74.870903"
         r="6.4668899"
         fill="#f2f2f2"
         id="circle2273" />
      <circle
         cx="150.76378"
         cy="100.6442"
         r="6.4668899"
         fill="#f2f2f2"
         id="circle2275" />
      <circle
         cx="177.76378"
         cy="23.324301"
         r="6.4668899"
         fill="#f2f2f2"
         id="circle2277" />
      <circle
         cx="177.76378"
         cy="49.097599"
         r="6.4668899"
         fill="#f2f2f2"
         id="circle2279" />
      <circle
         cx="177.76378"
         cy="74.870903"
         r="6.4668899"
         fill="#f2f2f2"
         id="circle2281" />
      <circle
         cx="177.76378"
         cy="100.6442"
         r="6.4668899"
         fill="#f2f2f2"
         id="circle2283" />
      <circle
         cx="204.76378"
         cy="23.324301"
         r="6.4668899"
         fill="#f2f2f2"
         id="circle2285" />
      <circle
         cx="204.76378"
         cy="49.097599"
         r="6.4668899"
         fill="#f2f2f2"
         id="circle2287" />
      <circle
         cx="204.76378"
         cy="74.870903"
         r="6.4668899"
         fill="#f2f2f2"
         id="circle2289" />
      <circle
         cx="204.76378"
         cy="100.6442"
         r="6.4668899"
         fill="#f2f2f2"
         id="circle2291" />
      <circle
         cx="231.76378"
         cy="23.324301"
         r="6.4668899"
         fill="#f2f2f2"
         id="circle2293" />
      <circle
         cx="231.76378"
         cy="49.097599"
         r="6.4668899"
         fill="#f2f2f2"
         id="circle2295" />
      <circle
         cx="231.76378"
         cy="74.870903"
         r="6.4668899"
         fill="#f2f2f2"
         id="circle2297" />
      <circle
         cx="231.76378"
         cy="100.6442"
         r="6.4668899"
         fill="#f2f2f2"
         id="circle2299" />
      <circle
         cx="601.76379"
         cy="381.32431"
         r="6.4668899"
         fill="#f2f2f2"
         id="circle2301" />
      <circle
         cx="601.76379"
         cy="407.0976"
         r="6.4668899"
         fill="#f2f2f2"
         id="circle2303" />
      <circle
         cx="601.76379"
         cy="432.87091"
         r="6.4668899"
         fill="#f2f2f2"
         id="circle2305" />
      <circle
         cx="628.76379"
         cy="381.32431"
         r="6.4668899"
         fill="#f2f2f2"
         id="circle2307" />
      <circle
         cx="628.76379"
         cy="407.0976"
         r="6.4668899"
         fill="#f2f2f2"
         id="circle2309" />
      <circle
         cx="628.76379"
         cy="432.87091"
         r="6.4668899"
         fill="#f2f2f2"
         id="circle2311" />
      <circle
         cx="655.76379"
         cy="381.32431"
         r="6.4668899"
         fill="#f2f2f2"
         id="circle2313" />
      <circle
         cx="655.76379"
         cy="407.0976"
         r="6.4668899"
         fill="#f2f2f2"
         id="circle2315" />
      <circle
         cx="655.76379"
         cy="432.87091"
         r="6.4668899"
         fill="#f2f2f2"
         id="circle2317" />
      <circle
         cx="682.76379"
         cy="381.32431"
         r="6.4668899"
         fill="#f2f2f2"
         id="circle2319" />
      <circle
         cx="682.76379"
         cy="407.0976"
         r="6.4668899"
         fill="#f2f2f2"
         id="circle2321" />
      <circle
         cx="682.76379"
         cy="432.87091"
         r="6.4668899"
         fill="#f2f2f2"
         id="circle2323" />
    </g>
  </g>
</svg>
